<?xml version="1.0" standalone="no"?>
<svg xmlns="http://www.w3.org/2000/svg" viewBox="0 0 110.688 36" width="110.688" height="36"><g fill="#0b0cac" color="#0b0cac" transform="translate(0 4.583333333333332) scale(0.5833334)"><svg width="48.0" height="46.0" x="0.0" y="0.0" viewBox="0 0 48 46"><path fill="currentColor" fill-rule="evenodd" d="M17.265 0L0 9.915v19.834l17.265 9.916 9.094-5.223 6.159 10.642L48 18.326H34.53V9.915L17.265 0zm4.969 21.326h20.563l-10.28 17.77-10.283-17.77z"></path></svg></g><path fill="#0b0cac" fill-rule="nonzero" d="M2.62 16.97L0.22 16.97Q0.02 16.97 0.02 16.80L0.02 16.80L0 0.46Q0 0.26 0.19 0.26L0.19 0.26L2.35 0.26L6.41 9.72L6.29 0.46Q6.29 0.26 6.50 0.26L6.50 0.26L8.88 0.26Q9.02 0.26 9.02 0.46L9.02 0.46L9.05 16.82Q9.05 16.97 8.93 16.97L8.93 16.97L6.82 16.97L2.66 8.14L2.83 16.78Q2.83 16.97 2.62 16.97L2.62 16.97ZM18.98 16.97L11.23 16.97Q11.14 16.97 11.14 16.85L11.14 16.85L11.16 0.36Q11.16 0.26 11.26 0.26L11.26 0.26L18.96 0.26Q19.06 0.26 19.06 0.38L19.06 0.38L19.06 3.07Q19.06 3.17 18.96 3.17L18.96 3.17L14.04 3.17L14.04 6.91L18.96 6.91Q19.06 6.91 19.06 7.01L19.06 7.01L19.08 9.72Q19.08 9.82 18.98 9.82L18.98 9.82L14.04 9.82L14.04 14.02L18.98 14.02Q19.08 14.02 19.08 14.14L19.08 14.14L19.08 16.87Q19.08 16.97 18.98 16.97L18.98 16.97ZM25.27 17.21L25.27 17.21Q23.98 17.21 22.91 16.55Q21.84 15.89 21.19 14.80Q20.54 13.70 20.54 12.38L20.54 12.38L20.57 4.78Q20.57 3.46 21.20 2.38Q21.84 1.30 22.92 0.65Q24 0 25.27 0L25.27 0Q26.57 0 27.62 0.65Q28.68 1.30 29.32 2.38Q29.95 3.46 29.95 4.78L29.95 4.78L29.98 12.38Q29.98 13.70 29.34 14.80Q28.70 15.89 27.64 16.55Q26.57 17.21 25.27 17.21ZM25.27 14.30L25.27 14.30Q25.99 14.30 26.53 13.72Q27.07 13.13 27.07 12.38L27.07 12.38L27.05 4.78Q27.05 3.98 26.54 3.43Q26.04 2.88 25.27 2.88L25.27 2.88Q24.53 2.88 24 3.42Q23.47 3.96 23.47 4.78L23.47 4.78L23.47 12.38Q23.47 13.18 24 13.74Q24.53 14.30 25.27 14.30ZM37.97 16.97L35.57 16.97Q35.38 16.97 35.38 16.80L35.38 16.80L35.35 0.46Q35.35 0.26 35.54 0.26L35.54 0.26L37.70 0.26L41.76 9.72L41.64 0.46Q41.64 0.26 41.86 0.26L41.86 0.26L44.23 0.26Q44.38 0.26 44.38 0.46L44.38 0.46L44.40 16.82Q44.40 16.97 44.28 16.97L44.28 16.97L42.17 16.97L38.02 8.14L38.18 16.78Q38.18 16.97 37.97 16.97L37.97 16.97ZM50.93 17.21L50.93 17.21Q49.63 17.21 48.56 16.55Q47.50 15.89 46.85 14.80Q46.20 13.70 46.20 12.38L46.20 12.38L46.22 4.78Q46.22 3.46 46.86 2.38Q47.50 1.30 48.58 0.65Q49.66 0 50.93 0L50.93 0Q52.22 0 53.28 0.65Q54.34 1.30 54.97 2.38Q55.61 3.46 55.61 4.78L55.61 4.78L55.63 12.38Q55.63 13.70 55.00 14.80Q54.36 15.89 53.29 16.55Q52.22 17.21 50.93 17.21ZM50.93 14.30L50.93 14.30Q51.65 14.30 52.19 13.72Q52.73 13.13 52.73 12.38L52.73 12.38L52.70 4.78Q52.70 3.98 52.20 3.43Q51.70 2.88 50.93 2.88L50.93 2.88Q50.18 2.88 49.66 3.42Q49.13 3.96 49.13 4.78L49.13 4.78L49.13 12.38Q49.13 13.18 49.66 13.74Q50.18 14.30 50.93 14.30ZM62.26 16.97L59.54 16.97Q59.45 16.97 59.45 16.85L59.45 16.85L59.45 3.17L56.33 3.17Q56.21 3.17 56.21 3.05L56.21 3.05L56.23 0.36Q56.23 0.26 56.33 0.26L56.33 0.26L65.45 0.26Q65.57 0.26 65.57 0.36L65.57 0.36L65.57 3.05Q65.57 3.17 65.47 3.17L65.47 3.17L62.33 3.17L62.35 16.85Q62.35 16.97 62.26 16.97L62.26 16.97ZM74.59 16.97L66.84 16.97Q66.74 16.97 66.74 16.85L66.74 16.85L66.77 0.36Q66.77 0.26 66.86 0.26L66.86 0.26L74.57 0.26Q74.66 0.26 74.66 0.38L74.66 0.38L74.66 3.07Q74.66 3.17 74.57 3.17L74.57 3.17L69.65 3.17L69.65 6.91L74.57 6.91Q74.66 6.91 74.66 7.01L74.66 7.01L74.69 9.72Q74.69 9.82 74.59 9.82L74.59 9.82L69.65 9.82L69.65 14.02L74.59 14.02Q74.69 14.02 74.69 14.14L74.69 14.14L74.69 16.87Q74.69 16.97 74.59 16.97L74.59 16.97Z" transform="translate(36, 9.516)"></path></svg>